<svg enable-background="new 0 0 246 151" height="247.645159" viewBox="0 0 246 151" width="403.803572" xmlns="http://www.w3.org/2000/svg"><g clip-rule="evenodd" fill-rule="evenodd"><path d="m13.7 117.8c.2 0 .3-.1.3-.3v-.1c0-.2-.1-.4-.2-.6s-.3-.3-.5-.2c-.4 0-.7.1-.8.2s-.2.2-.4.2c-.7.1-1.2.1-1.3.1-.2-.2-.4-.3-.6-.4-.1 0-.2.2-.4.5-1.5.1-3 .4-4.5.7-1.1.3-1.7.7-1.6 1.3 0 .3.1.6.2.9.2.4.5.9.8 1.2.1.1.1.1.2.1s.2 0 .2-.1c0-.1 0-.1-.1-.2-.4-.6-.5-1-.5-1.3s.2-.6.5-.8.9-.4 1.8-.6c.8-.2 1.6-.3 2.5-.3-.1.2-.4 1-1 2.6-.5 1.4-.9 2.4-1 2.9-.1 0-.1 0-.2 0s-.1 0-.2 0-.2.1-.3.3c-.3.6-.4 1.2-.4 1.9 0 .4 0 .5 0 .4 0 .1.1.2.2.2.2.1.5.1.7.2.2 0 .3-.2.4-.5.3-1.1.7-2.5 1.3-4.1.4-1.3.9-2.6 1.6-3.9 1-.1 2-.2 2.9-.3z" fill="#231f20"/><path d="m16.9 122.9c.2-.6.3-1.2.3-1.8 0-.1 0-.3-.1-.3-.1-.1-.3-.1-.4-.1-.1-.1-.3-.2-.4-.2s-.2.1-.4.3c-1 1.2-1.8 2.4-2.5 3.8.2-.6.4-1.3.6-1.9.2-.5.4-1 .7-1.5.1-.1.1-.2-.1-.3s-.4-.2-.6-.2c-.1 0-.3.1-.4.3-.4.6-.8 1-1.1 1.3 0 0-.1.1-.1.1 0 .1 0 .1.1.1s.1 0 .2-.1c.2-.3.5-.5.8-.8-.6 1.3-1 2.7-1.4 4.1-.1.2 0 .4.2.5.2.1.4.2.6.2.1 0 .3-.3.5-.8.5-1.6 1.4-3 2.5-4.3.1-.2.2-.3.3-.3s.1 0 .1.1c0 .4-.1.7-.2 1-.1.1 0 .3.1.4s.3.2.5.3c0 .3.1.2.2.1z" fill="#231f20"/><path d="m22.1 120.9c-.1 0-.2.1-.2.3 0 .1-.1.3-.3.6-.4.7-.8 1.3-1.3 1.8-.6.7-1.2 1.3-1.9 1.9-.2.2-.4.3-.7.3-.1 0-.2-.1-.2-.2v-.1c.1-.8.6-1.6 1.3-2.5.5-.7 1-1.2 1.7-1.7.3-.2.6-.2.9 0h.1c.1 0 .2 0 .2-.1 0 0 0-.1-.1-.1-.5-.4-.9-.7-1.1-.7-.3 0-.5.1-.7.3-.8.7-1.5 1.5-2.1 2.4-.5.7-.9 1.6-1 2.4v.2c0 .3.2.5.4.6.1.1.3.2.4.2.2 0 .4-.1.5-.2.5-.4 1.1-.8 1.5-1.3.7-.7 1.3-1.4 1.9-2.2-.4 1-.7 2-.8 3v.3c0 .1.1.1.2.2.2.1.3.2.5.2.1 0 .2-.1.2-.3.2-.7.5-1.4 1-2 0 0 .1-.1.1-.2s0-.1-.1-.1-.2.1-.2.1c-.1.1-.2.2-.2.2-.1.1-.2.2-.3.3.3-1 .6-2 1-3 0-.1.1-.2.1-.3s-.1-.1-.2-.2c-.2.1-.3 0-.6-.1z" fill="#231f20"/><path d="m29.8 123.8c0-.1 0-.1-.1-.1s-.1 0-.1.1c-.2.3-.4.5-.6.7.2-.5.3-.9.4-1.4s.2-1.1.3-1.6c0-.3-.2-.5-.7-.7-.1-.1-.2-.1-.3-.2-.1 0-.2 0-.4.1-.3.1-.8.6-1.5 1.3-.6.6-1.1 1.3-1.6 2 .5-1.3.8-2.3.9-2.8 0-.2-.2-.4-.6-.5-.1-.1-.2-.2-.3-.2s-.2 0-.3.1c-.4.4-.7.7-.9 1 0 0-.1.1-.1.1 0 .1 0 .1.1.1s.1 0 .2-.1c.3-.2.5-.4.6-.5s.2-.2.2-.2 0 .1 0 .3c-.1.8-.3 1.6-.6 2.3-.2.8-.6 1.5-.9 2.3 0 .1-.1.1-.1.2 0 0 .1.1.2.1.2.1.4.2.6.2s.3-.1.4-.4c.9-1.8 2-3.3 3.5-4.7.1-.1.2-.2.3-.2s.2.1.2.3c0 .5-.1 1.3-.4 2.2-.2.8-.5 1.6-.9 2.3 0 .1-.1.1-.1.2s.1.2.3.2c.1.1.3.1.4.1s.3-.1.3-.2c.1-.2.2-.4.3-.6.5-.6.9-1.3 1.3-1.8-.1.1 0 .1 0 0z" fill="#231f20"/><path d="m33 120.7c-1.2.2-1.8.6-1.9 1.2 0 .2.1.7.5 1.5s.5 1.3.5 1.6c0 .1 0 .3-.1.4-.1.2-.3.4-.6.4-.7.1-1.3.2-1.7.2-.3 0-.4.1-.4.2s.1.2.2.2l1.2.2h.5c.2 0 .4-.1.5-.2s.2-.3.3-.4c.7-.2 1.1-.6 1.1-1.2 0-.4-.1-.8-.3-1.2-.3-.7-.4-1.2-.5-1.4 0-.2-.1-.3-.1-.5 0-.3.3-.6.9-.8.1 0 .1-.1.1-.1 0-.1 0-.1-.2-.1z" fill="#231f20"/><path d="m34 122.1c.1-.1.1-.2.2-.3.1-.3.2-.7.2-1 0-.2-.1-.3-.2-.3-.2 0-.3.1-.5.2-.1 0-.2.2-.2.3 0 .3 0 .7-.2 1v.2c0 .1 0 .1.1.1s.3-.1.4-.1c0 0 .1-.1.2-.1z" fill="#231f20"/><path d="m39.1 121c0-.1-.1-.1-.2-.1-.2 0-.8-.1-1.6-.2 1.2-2.9 2-4.4 2.5-4.7.1-.1.3-.1.5-.1.3 0 .6.1.8.2h.2c.1 0 .2 0 .2-.1s0-.1-.1-.2c-.8-.5-1.4-.8-1.8-.8s-.8.3-1.2 1c-.5.8-1.2 2.3-2 4.5 0 .1-.2.2-.4.2s-.5.1-.7.2c-.2 0-.3.1-.3.2s.1.1.1.2.1.1.2.1h.8c-1 2.5-1.8 5.2-2.4 7.8 0 .3.1.5.5.7.2.1.4.2.6.2.1 0 .1 0 .1-.1s0-.1 0-.2 0-.1 0-.2c.1-1 .2-1.9.5-2.8.5-1.8 1-3.6 1.7-5.3.6 0 1.3-.1 1.9-.2 0-.2.1-.2.1-.3z" fill="#231f20"/><path d="m42.8 120.7c-.1 0-.3 0-.4.1-.3.1-.6.2-.7.3-.4-.3-.7-.5-.9-.5s-.4.1-.5.3c-.6.6-1 1.3-1.3 2.1-.3.7-.5 1.4-.6 2.1 0 .4.2.8.5 1.1.4.3.8.4 1.2.4.2.1.4.1.6.1.4 0 .8-.2 1.1-.5.7-.7 1.2-1.6 1.5-2.5.2-.5.3-1.1.3-1.7 0-.3-.1-.5-.2-.7-.1-.4-.4-.6-.6-.6zm0 1.5c-.1.8-.3 1.6-.7 2.3-.4.8-.8 1.3-1.3 1.6-.2.1-.4.2-.7.2-.5 0-.8-.3-.8-1.1 0-.2 0-.5.1-.7.1-.5.2-.9.4-1.3.2-.5.5-1 .9-1.5 0 .1.1.1.1.1.1 0 .2 0 .2-.1l1.2-.4h.2c.1 0 .2.1.2.3.3 0 .3.2.2.6z" fill="#231f20"/><path d="m49.3 120.8c-.1-.1-.3-.1-.4-.1-.1-.1-.2-.2-.4-.2-.1 0-.2.1-.4.3-1 1.2-1.8 2.4-2.5 3.8.2-.6.4-1.3.6-1.9.2-.5.4-1 .7-1.5.1-.1.1-.2-.1-.3s-.4-.2-.6-.2c-.1 0-.3.1-.4.3-.4.6-.8 1-1.1 1.3 0 0-.1.1-.1.1 0 .1 0 .1.1.1s.1 0 .2-.1c.2-.3.5-.5.8-.8-.6 1.3-1 2.7-1.4 4.1-.1.2 0 .4.2.5.2.1.4.2.6.2.1 0 .3-.3.5-.8.5-1.6 1.4-3 2.5-4.3.1-.2.2-.3.3-.3s.1 0 .1.1c0 .4-.1.7-.2 1-.1.1 0 .3.1.4s.3.2.5.3c.1 0 .2-.1.2-.3.2-.6.3-1.2.3-1.8 0 .3 0 .2-.1.1z" fill="#231f20"/><path d="m58.9 124c-.2.3-.4.5-.6.7.5-1 .8-2.2.8-3.3 0-.3-.2-.6-.5-.7h-.1c-.2-.2-.4-.3-.6-.3-.1 0-.3.1-.4.1-1.1 1-2 2-2.9 3.2.3-.8.4-1.7.4-2.6 0-.1 0-.3-.1-.4s-.3-.2-.4-.2c-.2-.1-.3-.2-.5-.2-.1 0-.2.1-.3.1-.8.6-1.7 1.7-2.6 3.2.3-.8.5-1.7.6-2.5v-.1c0-.1-.1-.2-.2-.3l-.4-.1c-.2-.2-.3-.2-.3-.2s-.2.1-.3.2c-.3.3-.6.7-.9 1-.1 0-.1.1-.1.2s0 .1.1.1.1 0 .2-.1l.4-.4.4-.4c0 .5-.1 1.4-.4 2.5-.2.7-.4 1.4-.7 2.1-.1.1-.2.2-.2.2s0 .1.1.1c.2.2.4.3.7.3.1 0 .2-.1.3-.3.4-1 .9-1.9 1.5-2.8.5-.8 1.2-1.6 1.9-2.2.1-.1.2-.1.3-.1s.1.1.1.2c0 1.6-.4 3.1-1.1 4.5 0 .1-.1.2-.1.3s0 .1.1.2c.2.1.3.2.5.2h.2s.1-.1.1-.2c.5-1.1 1.1-2.2 1.8-3.2.5-.7 1.1-1.3 1.8-1.9.1-.1.2-.1.3-.1s.2.1.2.2c0 .7-.2 1.5-.4 2.1-.3.9-.6 1.8-1 2.6 0 .1-.1.1-.1.2s.2.2.6.3c.1 0 .2.1.3 0 0 0 .1-.1.1-.2.7-1.2 1.2-2 1.6-2.4 0 0 .1-.1.1-.2s0-.1-.1-.1c0 .6-.1.7-.2.7z" fill="#231f20"/><path d="m61.8 120.9c-.1-.1-.2-.1-.4-.2-.1 0-.2.1-.2.1-.3.3-.6.6-.8.9 0 0-.1.1-.1.1 0 .1.1.1.3 0l.5-.4c.1-.1.2-.1.3-.2.1 0 .1.1.1.3-.1.8-.3 1.5-.6 2.3-.2.8-.6 1.5-1 2.2 0 .1-.1.1-.1.2 0 0 .1.1.2.2.2.1.3.1.5.2.1 0 .2-.1.3-.2.2-.4.4-.8.7-1.2.4-.6.6-.9.7-1s.1-.2 0-.2c0 0-.1 0-.1.1-.2.2-.4.5-.6.7.4-1 .7-2.1 1-3.2 0-.1 0-.2 0-.3s-.1-.3-.2-.4c-.2 0-.4 0-.5 0z" fill="#231f20"/><path d="m63.6 118.7c0-.1-.1-.2-.1-.2-.2-.1-.4-.2-.6-.3-.1 0-.1.1-.3.2-.3.3-.6.6-1 .8-.1 0-.1 0-.1 0v.1s.1.1.1.1c.1.1.3.1.4.2.3 0 .6 0 .9-.2.5-.3.7-.6.7-.7z" fill="#231f20"/><path d="m67.7 121.4c.1-.1.2-.2.3-.2s.2.1.2.3c0 .8-.1 1.5-.4 2.2-.2.8-.5 1.6-.9 2.3 0 .1-.1.1-.1.2s.1.2.3.2c.1.1.3.1.4.1s.2-.1.3-.2c.1-.2.2-.4.3-.6.5-.8.9-1.4 1.3-1.9v-.1c0-.1 0-.1-.1-.1s-.1 0-.1.1c-.2.3-.4.5-.6.7.2-.5.3-.9.4-1.4s.2-1.1.3-1.6c0-.3-.2-.5-.7-.7-.1-.1-.2-.1-.3-.2-.1 0-.2 0-.4.1-.3.1-.8.6-1.5 1.3-.6.6-1.1 1.3-1.6 2 .5-1.4.8-2.3.9-2.8 0-.2-.2-.4-.6-.5-.1-.1-.2-.2-.3-.2s-.2 0-.2.1c-.4.4-.7.7-.9 1 0 0-.1.1-.1.1 0 .1 0 .1.1.1s.1 0 .2-.1c.3-.2.5-.4.6-.5s.2-.2.2-.2v.3c-.1.8-.3 1.6-.6 2.3-.2.8-.6 1.5-.9 2.3 0 .1-.1.1-.1.2 0 0 .1.1.2.1.2.1.4.2.6.2s.3-.1.4-.4c.7-1.6 1.9-3.2 3.4-4.5z" fill="#231f20"/><path d="m75 120.5c-.1 0-.1.1-.1.3s-.1.5-.1.7c-.3.8-.7 1.6-1.2 2.3-.5.8-1.2 1.5-1.9 2.1-.1.1-.3.2-.5.2s-.3-.2-.3-.5c0-.1 0-.3 0-.4.2-.7.4-1.4.9-2 .3-.6.7-1 1.2-1.5.2-.1.4-.2.6-.2s.3 0 .5.1c.1 0 .2.1.3.1s.2 0 .2-.1-.1-.1-.1-.2c-.4-.3-.6-.5-.6-.5-.2-.1-.4-.2-.6-.2-.3 0-.6.2-.8.4-.6.6-1.2 1.3-1.6 2-.5.9-.8 1.7-.8 2.3 0 .5.3.9.7 1.1.2.2.5.3.7.3.3 0 .5-.2.7-.4.7-.6 1.4-1.6 2.3-2.9-1.5 5.7-3.3 8.6-5.5 8.6-.7 0-1.5-.3-2.3-1-.1 0-.1-.1-.2-.1s-.2.1-.2.2.1.2.2.3c1.1.9 2.1 1.4 3.1 1.4 2.6 0 4.8-3.8 6.4-11.3.1-.3 0-.5-.2-.6-.4-.3-.6-.4-.8-.5z" fill="#231f20"/><path d="m88.7 118.7c.2.1.5.1.7-.1l.3-.2c.1-.1.1-.2.1-.3s0-.3-.1-.4c0-.2-.1-.2-.2-.2s-.2 0-.2.1c-.1.2-.4.3-.6.2-1.9-.4-3-.6-3.2-.7 0-.1.1-.2.1-.3s0-.1-.1-.1c-.2 0-.4.1-.6.3-.8-.2-1.7-.3-2.6-.3-.8 0-1.2.2-1.4.7-.1.3-.2.6-.2.9 0 .6.1 1.1.3 1.6 0 .1.1.2.2.2s.2-.1.1-.3c-.1-.3-.2-.7-.2-1 0-.6.3-1 .9-1h.7c.6 0 1.1.1 1.7.2-.4 1.3-.7 2.4-.9 3.2-.1 0-.2 0-.3.1-.4.1-.6.2-.6.4 0 .1.1.3.1.4.1.3.2.4.2.5-.3.9-.8 1.9-1.3 2.7-.5 0-.9 0-1.4.1-.2.1-.3.2-.3.4 0 .1.1.3.2.7 0 .1.1.2.2.2s.4-.2.8-.5c.7 0 1.3-.1 1.9-.1 1.3 0 2.6.1 3.9.4.3.1.4.1.5.1s.2 0 .3-.1.2-.2.3-.2c.1-.1.2-.2.1-.3-.1-.3-.2-.6-.2-.8 0-.1-.2-.2-.3-.2s-.1.1-.2.2c0 .1-.1.2-.3.2-2-.2-3.5-.2-4.4-.2-.2 0-.4 0-.6 0 .3-.1.5-.3.7-.6s.4-.6.5-1l.6-1.8c.7-.1 1.5-.1 2.2-.1.2 0 .3.1.4.2s.3.1.8.1.6-.2.6-.3v-.1c0-.2-.1-.3-.1-.5-.1-.2-.4-.3-.6-.3-1.4.1-2.4.1-3 .2.2-.7.4-1.6.8-2.9 1.6.1 2.7.3 3.7.6z" fill="#231f20"/><path d="m94.7 124.3c-.2.2-.4.4-.6.6.7-3.5 1.7-6.3 3.2-8.5.4-.6.8-.9 1.1-.9.2 0 .4.1.6.2h.2c.1 0 .2 0 .2-.1s0-.1-.1-.1l-.8-.6c-.2-.1-.4-.2-.6-.2s-.3.1-.4.2c-.4.3-.9 1-1.4 1.9-.8 1.4-1.4 2.9-1.9 4.5-.1.2-.2.4-.3.6-.4.7-.8 1.3-1.3 1.8-.6.7-1.2 1.3-1.9 1.9-.2.2-.4.3-.7.3-.1 0-.2-.1-.2-.3.1-.8.5-1.6 1.2-2.5.5-.7 1-1.2 1.7-1.7.3-.2.6-.2.9 0h.1c.1 0 .2 0 .2-.1 0 0 0-.1-.1-.1-.5-.4-.9-.7-1.1-.7-.3 0-.5.1-.7.3-.8.7-1.5 1.5-2.1 2.3-.5.7-.9 1.6-1.1 2.4v.1c0 .2.2.5.5.7.1.1.3.2.4.2.2 0 .4-.1.5-.2.5-.4 1-.8 1.4-1.3.6-.6 1.2-1.3 1.8-2-.2.5-.3 1.3-.6 2.4v.3c0 .1.1.3.2.4s.3.2.5.3c.1 0 .1.1.2.1s.2-.1.2-.3c.2-.7.5-1.4 1-2 .1-.1.1-.2 0-.2.1.1 0 .2-.2.3z" fill="#231f20"/><path d="m102 120.9c-.1-.1-.3-.1-.4-.1s-.2 0-.3.1c-.2.1-.3.4-.6.9-.4.6-.8 1.3-1.3 1.9-.5.8-1.1 1.5-1.8 2.2-.2.2-.3.3-.4.3s-.1-.1-.1-.3c0-.8.2-1.6.5-2.4.2-.7.5-1.3.9-1.9l.2-.2s0-.1-.1-.1c-.2-.1-.4-.2-.6-.2-.1 0-.2.1-.3.2-.2.3-.4.5-.5.9-.1.3-.3.5-.5.7-.1.1-.1.1 0 .2s.1 0 .2 0l.4-.3c-.5 1.1-.8 2.2-.8 3.4v.2c0 .3.2.5.6.5.2.1.3.2.5.2s.4-.1.5-.2c1-1 1.8-2.1 2.6-3.3-.3.9-.6 1.8-.8 2.7-.1.2 0 .4.2.5s.4.2.6.3c.1 0 .2-.1.3-.4.2-.5.4-1.1.7-1.6v-.1c0-.1 0-.1-.1-.1s-.1 0-.1.1c-.2.4-.4.7-.5.9.3-1.4.9-2.8 1.6-4.1 0 0 0-.1.1-.1 0 0 .1 0 .1-.1-.5-.5-.6-.6-.8-.7z" fill="#231f20"/><path d="m105.7 122.8c0 .1.1.2.5.4.1.1.3.1.4-.1 0 0 0 0 0-.1.3-.6.4-1.2.3-1.8 0-.3-.2-.4-.6-.4-.2 0-.4 0-.6.1-.3-.2-.5-.3-.8-.3-.2 0-.4.1-.5.3-1 1.2-1.6 2.6-1.9 4.2 0 .4.1.8.4 1.1s.8.4 1.2.4c.2.1.4.1.6.1s.4 0 .6-.2c.5-.5.8-1 1.1-1.6v-.1c0-.1 0-.1-.1-.1s-.2.1-.2.1c-.9 1-1.5 1.5-2 1.5s-.8-.3-.8-1.1c0-.2 0-.5.1-.7.1-.5.3-.9.5-1.3.2-.5.5-1 .9-1.5.3-.3.5-.5.7-.5h.1.1c.2 0 .4.1.4.3 0 .4-.1.7-.2 1.1-.2.1-.2.1-.2.2z" fill="#231f20"/><path d="m112.3 120.9c-.1 0-.2.1-.2.3 0 .1-.1.3-.3.6-.4.7-.8 1.3-1.4 1.8-.6.7-1.2 1.3-1.9 1.9-.2.2-.4.3-.7.3-.1 0-.2-.1-.2-.2v-.1c.1-.8.6-1.6 1.3-2.5.5-.7 1-1.2 1.7-1.7.3-.2.6-.2.9 0h.1c.1 0 .2 0 .2-.1 0 0 0-.1-.1-.1-.5-.4-.9-.7-1.1-.7-.3 0-.5.1-.7.3-.8.7-1.5 1.5-2.1 2.3-.5.7-.9 1.6-1 2.4v.2c0 .3.2.5.4.6.1.1.3.2.4.2.2 0 .4-.1.5-.2.5-.4 1.1-.8 1.5-1.3.7-.7 1.3-1.4 1.9-2.2-.4 1-.7 2-.8 3v.3c0 .1.1.1.2.2.2.1.3.2.5.2.1 0 .2-.1.2-.3.2-.7.5-1.4 1-2 0 0 .1-.1.1-.2s0-.1-.1-.1-.2.1-.2.1c-.1.1-.2.2-.2.2-.1.1-.2.2-.3.3.3-1 .6-2 1-3 0-.1.1-.2.1-.3s-.1-.1-.2-.2c-.1.2-.3.1-.5 0z" fill="#231f20"/><path d="m116.4 125c-.7.6-1.2.9-1.3.9s-.1-.1-.1-.2c0 0 0-.1 0-.2.2-1.4.6-2.9 1.2-4.2 1.1-.1 1.7-.1 1.8-.1s.2-.1.2-.2c0-.2-.1-.2-.3-.2-.4 0-.8.1-1.3 0-.1 0-.2 0-.2-.1 0 0 0-.1 0-.2.5-1.2.8-1.9 1.1-2.3s.5-.6.7-.6h.1.1c.1 0 .2 0 .2-.1s-.1-.2-.2-.2c-.3-.2-.6-.3-.9-.3s-.5.2-.6.4c-.3.5-.8 1.5-1.3 3-.2.1-.3.2-.5.2-.3.1-.5.1-.6.2-.1 0-.2.1-.2.2s.1.2.1.2l.8.1c-.5 1.5-.9 3-1.2 4.5v.1c0 .2.2.4.5.4.2.1.3.2.5.2s.3-.1.4-.2c.5-.4.9-.8 1.3-1.3.1-.1.1-.1.1-.2s-.1-.1-.1-.1c-.2.2-.2.2-.3.3z" fill="#231f20"/><path d="m119.4 120.9c-.1-.1-.2-.1-.4-.2-.1 0-.2.1-.2.1-.3.3-.6.6-.8.9 0 0-.1.1-.1.1 0 .1.1.1.3 0l.5-.4c.1-.1.2-.1.3-.2.1 0 .1.1.1.3-.1.8-.3 1.5-.6 2.3-.2.8-.6 1.5-1 2.2 0 .1-.1.1-.1.2 0 0 .1.1.2.2.2.1.3.1.5.2.1 0 .2-.1.3-.2.2-.4.4-.8.7-1.2.4-.6.6-.9.7-1s.1-.2 0-.2c0 0-.1 0-.1.1-.2.2-.4.5-.6.7.4-1 .7-2.1 1-3.2 0-.1 0-.2 0-.3s-.1-.3-.2-.4c-.3 0-.4 0-.5 0z" fill="#231f20"/><path d="m121.2 118.7c0-.1-.1-.2-.1-.2-.2-.1-.4-.2-.6-.3-.1 0-.1.1-.3.2-.3.3-.6.6-1 .8-.1 0-.1 0-.1 0v.1s.1.1.1.1c.1.1.3.1.4.2.3 0 .6 0 .9-.2.5-.3.7-.6.7-.7z" fill="#231f20"/><path d="m125 120.7c-.1 0-.3 0-.4.1-.3.1-.6.2-.7.3-.4-.3-.7-.5-.9-.5s-.4.1-.5.3c-.6.6-1 1.3-1.3 2.1-.3.7-.5 1.4-.6 2.1 0 .4.2.8.5 1.1.4.3.8.4 1.2.4.2.1.4.1.6.1.4 0 .8-.2 1.1-.5.7-.7 1.2-1.6 1.5-2.5.2-.5.3-1.1.3-1.7 0-.3-.1-.5-.2-.7-.1-.4-.4-.6-.6-.6zm0 1.5c-.1.8-.3 1.6-.7 2.3-.4.8-.8 1.3-1.3 1.6-.2.1-.4.2-.7.2-.5 0-.8-.3-.8-1.1 0-.2 0-.5.1-.7.1-.5.2-.9.4-1.3.2-.5.5-1 .9-1.5 0 .1.1.1.1.1.1 0 .2 0 .2-.1l1.2-.4h.2c.1 0 .2.1.2.3.3 0 .3.2.2.6z" fill="#231f20"/><path d="m132.4 123.8c-.2.3-.4.5-.6.7.2-.5.3-.9.4-1.4s.2-1.1.3-1.6c0-.3-.2-.5-.7-.7-.1-.1-.2-.1-.3-.2-.1 0-.2 0-.4.1-.3.1-.8.6-1.5 1.3-.6.6-1.1 1.3-1.6 2 .5-1.3.8-2.3.9-2.8 0-.2-.2-.4-.6-.5-.1-.1-.2-.2-.3-.2s-.2 0-.2.1c-.4.4-.7.7-.9 1 0 0-.1.1-.1.1 0 .1 0 .1.1.1s.1 0 .2-.1c.3-.2.5-.4.6-.5s.2-.2.2-.2 0 .1 0 .3c-.1.8-.3 1.6-.6 2.3-.2.8-.6 1.5-.9 2.3 0 .1-.1.1-.1.2 0 0 .1.1.2.1.2.1.4.2.6.2s.3-.1.4-.4c.9-1.8 2-3.3 3.5-4.7.1-.1.2-.2.3-.2s.2.1.2.3c0 .8-.1 1.5-.4 2.2-.2.8-.5 1.6-.9 2.3 0 .1-.1.1-.1.2s.1.2.3.2c.1.1.3.1.4.1s.3-.1.3-.2c.1-.2.2-.4.3-.6.5-.8.9-1.4 1.3-1.9v-.1c0-.1 0-.1-.1-.1-.1.2-.2.2-.2.3z" fill="#231f20"/><path d="m147.4 117.8c.2 0 .3-.1.3-.3v-.1c0-.2-.1-.4-.2-.6s-.3-.3-.5-.2c-.4 0-.7.1-.8.2s-.2.2-.4.2c-.7.1-1.2.1-1.3.1-.2-.2-.4-.3-.6-.4-.1 0-.2.2-.4.5-1.5.1-3 .4-4.5.7-1.1.3-1.7.7-1.6 1.3 0 .3.1.6.2.9.2.4.5.9.8 1.2.1.1.1.1.2.1s.2 0 .2-.1c0-.1 0-.1-.1-.2-.4-.6-.5-1-.5-1.3s.2-.6.5-.8.9-.4 1.8-.6c.8-.2 1.6-.3 2.5-.3-.1.2-.4 1-1 2.6-.5 1.4-.9 2.4-1 2.9-.1 0-.1 0-.2 0s-.1 0-.2 0-.2.1-.3.3c-.3.6-.4 1.2-.4 1.9 0 .4 0 .5 0 .4 0 .1.1.2.2.2.2.1.4.1.7.2.2 0 .3-.2.4-.5.3-1.1.7-2.5 1.3-4.1.4-1.3.9-2.6 1.6-3.9 1-.1 2-.2 2.9-.3z" fill="#231f20"/><path d="m150.5 122.9c.2-.6.3-1.2.3-1.8 0-.1 0-.3-.1-.3-.1-.1-.3-.1-.4-.1-.1-.1-.3-.2-.4-.2s-.2.1-.4.3c-1 1.2-1.8 2.4-2.5 3.8.2-.6.4-1.3.6-1.9.2-.5.4-1 .7-1.5.1-.1.1-.2-.1-.3s-.4-.2-.6-.2c-.1 0-.3.1-.4.3-.4.6-.8 1-1.1 1.3 0 0-.1.1-.1.1 0 .1 0 .1.1.1s.1 0 .2-.1c.2-.3.5-.5.8-.8-.6 1.3-1 2.7-1.4 4.1-.1.2 0 .4.2.5.2.1.4.2.6.2.1 0 .3-.3.5-.8.5-1.6 1.4-3 2.5-4.3.1-.2.2-.3.3-.3s.1 0 .1.1c0 .4-.1.7-.2 1-.1.1 0 .3.1.4s.3.2.5.3c.1.3.2.2.2.1z" fill="#231f20"/><path d="m156.4 121.2c-.2-.1-.4-.2-.6-.3-.1 0-.2.1-.2.3 0 .1-.1.3-.3.6-.4.7-.8 1.3-1.3 1.8-.6.7-1.2 1.3-1.9 1.9-.2.2-.4.3-.6.3-.1 0-.2-.1-.2-.2v-.1c.1-.8.6-1.6 1.3-2.5.5-.7 1-1.2 1.7-1.7.3-.2.6-.2.9 0h.1c.1 0 .2 0 .2-.1 0 0 0-.1-.1-.1-.5-.4-.9-.7-1.1-.7-.3 0-.5.1-.7.3-.8.7-1.5 1.5-2.1 2.3-.5.7-.9 1.6-1 2.4v.2c0 .3.2.5.4.6.1.1.3.2.4.2.2 0 .4-.1.5-.2.5-.4 1.1-.8 1.5-1.3.7-.7 1.3-1.4 1.9-2.2-.4 1-.7 2-.9 3v.3c0 .1.1.1.2.2.2.1.3.2.5.2.1 0 .2-.1.2-.3.2-.7.5-1.4 1-2 0 0 .1-.1.1-.2s0-.1-.1-.1-.2.1-.2.1c-.1.1-.2.2-.2.2-.1.1-.2.2-.3.3.3-1 .6-2 1-3 0-.1.1-.2.1-.3 0 .3-.1.2-.2.1z" fill="#231f20"/><path d="m163.4 123.8c0-.1 0-.1-.1-.1s-.1 0-.1.1c-.2.3-.4.5-.6.7.2-.5.3-.9.4-1.4s.2-1.1.3-1.6c0-.3-.2-.5-.7-.7-.1-.1-.2-.1-.3-.2-.1 0-.2 0-.4.1-.3.1-.8.6-1.5 1.3-.6.6-1.1 1.3-1.6 2 .5-1.3.8-2.3.9-2.8 0-.2-.2-.4-.6-.5-.1-.1-.2-.2-.3-.2s-.2 0-.3.1c-.4.4-.7.7-.9 1 0 0-.1.1-.1.1 0 .1 0 .1.1.1s.1 0 .2-.1c.3-.2.5-.4.6-.5s.2-.2.2-.2v.3c-.1.8-.3 1.6-.6 2.3-.2.8-.6 1.5-.9 2.3 0 .1-.1.1-.1.2 0 0 .1.1.2.1.2.1.4.2.6.2s.3-.1.4-.4c.9-1.8 2-3.3 3.5-4.7.1-.1.2-.2.3-.2s.2.1.2.3c0 .5-.1 1.3-.4 2.2-.2.8-.5 1.6-.9 2.3 0 .1-.1.1-.1.2s.1.2.3.2c.1.1.3.1.4.1s.3-.1.3-.2c.1-.2.2-.4.3-.6.6-.6 1-1.3 1.3-1.8 0 .1 0 .1 0 0z" fill="#231f20"/><path d="m167.7 122.1c.1-.1.1-.2.2-.3.1-.3.2-.7.2-1 0-.2-.1-.3-.2-.3-.2 0-.3.1-.5.2-.1 0-.2.2-.2.3 0 .3 0 .7-.1 1v.2c0 .1 0 .1.1.1s.3-.1.4-.1c-.1 0 0-.1.1-.1z" fill="#231f20"/><path d="m166.7 120.7c-1.2.2-1.8.6-1.9 1.2 0 .2.1.7.5 1.5s.5 1.3.5 1.6c0 .1 0 .3-.1.4-.1.2-.3.4-.6.4-.7.1-1.3.2-1.7.2-.3 0-.4.1-.5.2 0 .1.1.2.2.2l1.2.2h.5c.2 0 .4-.1.5-.2s.2-.3.3-.4c.7-.2 1.1-.6 1.1-1.2 0-.4-.1-.8-.3-1.2-.3-.7-.4-1.2-.5-1.4 0-.2-.1-.3-.1-.5 0-.3.3-.6.9-.8.1 0 .1-.1.1-.1.1-.1 0-.1-.1-.1z" fill="#231f20"/><path d="m172.8 121c0-.1-.1-.1-.2-.1-.2 0-.8-.1-1.6-.2 1.2-2.9 2-4.4 2.5-4.7.1-.1.3-.1.5-.1.3 0 .6.1.8.2h.2c.1 0 .2 0 .2-.1s0-.1-.1-.2c-.8-.5-1.4-.8-1.8-.8s-.8.3-1.2 1c-.5.8-1.2 2.3-2 4.5 0 .1-.2.2-.4.2s-.5.1-.7.2c-.2 0-.3.1-.3.2s.1.1.1.2.1.1.2.1h.8c-1 2.5-1.8 5.2-2.4 7.8 0 .3.1.5.5.7.2.1.4.2.6.2.1 0 .1 0 .1-.1s0-.1 0-.2 0-.1 0-.2c.1-1 .2-1.9.5-2.8.5-1.8 1-3.6 1.7-5.3.6 0 1.3-.1 1.9-.2 0-.2.1-.2.1-.3z" fill="#231f20"/><path d="m176.5 120.7c-.1 0-.3 0-.4.1-.3.1-.6.2-.7.3-.4-.3-.7-.5-.9-.5s-.4.1-.5.3c-.6.6-1 1.3-1.3 2.1-.3.7-.5 1.4-.6 2.1 0 .4.2.8.5 1.1.4.3.8.4 1.2.4.2.1.4.1.6.1.4 0 .8-.2 1.1-.5.7-.7 1.2-1.6 1.5-2.5.2-.5.3-1.1.3-1.7 0-.3-.1-.5-.2-.7-.2-.4-.4-.6-.6-.6zm0 1.5c-.1.8-.3 1.6-.7 2.3-.4.8-.8 1.3-1.3 1.6-.2.1-.4.2-.7.2-.5 0-.8-.3-.8-1.1 0-.2 0-.5.1-.7.1-.5.2-.9.4-1.3.2-.5.5-1 .9-1.5 0 .1.1.1.1.1.1 0 .2 0 .2-.1l1.2-.4h.2c.1 0 .2.1.2.3.3 0 .2.2.2.6z" fill="#231f20"/><path d="m182.9 120.8c-.1-.1-.3-.1-.4-.1-.1-.1-.2-.2-.4-.2-.1 0-.2.1-.4.3-1 1.2-1.8 2.4-2.5 3.8.2-.6.4-1.3.6-1.9.2-.5.4-1 .7-1.5.1-.1.1-.2-.1-.3s-.4-.2-.6-.2c-.1 0-.3.1-.4.3-.4.6-.8 1-1.1 1.3 0 0-.1.1-.1.1 0 .1 0 .1.1.1s.1 0 .2-.1c.2-.3.5-.5.8-.8-.6 1.3-1 2.7-1.4 4.1-.1.2 0 .4.2.5.2.1.4.2.6.2.1 0 .3-.3.5-.8.5-1.6 1.4-3 2.5-4.3.1-.2.2-.3.3-.3s.1 0 .1.1c0 .4-.1.7-.2 1-.1.1 0 .3.1.4s.3.2.5.3c.1 0 .2-.1.2-.3.2-.6.3-1.2.3-1.8.1.3 0 .2-.1.1z" fill="#231f20"/><path d="m192.6 124c-.2.3-.4.5-.6.7.5-1 .8-2.2.8-3.3 0-.3-.2-.6-.5-.7h-.1c-.2-.2-.4-.3-.6-.3-.1 0-.3.1-.4.1-1.1 1-2 2-2.9 3.2.3-.8.4-1.7.4-2.6 0-.1 0-.3-.1-.4s-.3-.2-.4-.2c-.2-.1-.3-.2-.5-.2-.1 0-.2.1-.3.1-.8.6-1.7 1.7-2.6 3.2.3-.8.5-1.7.6-2.5v-.1c0-.1-.1-.2-.2-.3l-.4-.1c-.2-.2-.3-.2-.3-.2s-.2.1-.3.2c-.3.3-.6.7-.9 1-.1.1-.1.1-.1.2s0 .1.1.1.1 0 .2-.1l.4-.4c.2-.2.3-.3.4-.4 0 .5-.1 1.4-.4 2.5-.2.7-.4 1.4-.7 2.1-.1.1-.2.2-.2.2s0 .1.1.1c.2.2.4.3.7.3.1 0 .2-.1.3-.3.4-1 .9-1.9 1.5-2.8.7-1 1.3-1.8 1.9-2.2.1-.1.2-.1.3-.1s.1.1.1.2c0 1.6-.4 3.1-1.1 4.5 0 .1-.1.2-.1.3s0 .1.1.2c.2.1.3.2.5.2h.2s.1-.1.1-.2c.5-1.1 1.1-2.2 1.9-3.2.5-.7 1.1-1.3 1.8-1.9.1-.1.2-.1.3-.1s.2.1.2.2c0 .7-.2 1.5-.4 2.1-.3.9-.6 1.8-1 2.6 0 .1-.1.1-.1.2s.2.2.6.3c.1 0 .2.1.3 0 0 0 .1-.1.1-.2.7-1.2 1.2-2 1.6-2.4 0 0 .1-.1.1-.2s0-.1-.1-.1c-.1.6-.2.6-.3.7z" fill="#231f20"/><path d="m195.5 120.9c-.1-.1-.2-.1-.4-.2-.1 0-.2.1-.2.1-.3.3-.6.6-.8.9 0 0-.1.1-.1.1 0 .1.1.1.3 0l.5-.4c.1-.1.2-.1.3-.2.1 0 .1.1.1.3-.1.8-.3 1.5-.6 2.3-.2.8-.6 1.5-1 2.2 0 .1-.1.1-.1.2 0 0 .1.1.2.2.2.1.3.1.5.2.1 0 .2-.1.3-.2.2-.4.4-.8.7-1.2.4-.6.6-.9.7-1s.1-.2 0-.2c0 0-.1 0-.1.1-.2.2-.4.5-.6.7.4-1 .7-2.1 1-3.2 0-.1 0-.2 0-.3s-.1-.3-.2-.4c-.2 0-.4 0-.5 0z" fill="#231f20"/><path d="m197.3 118.7c0-.1-.1-.2-.1-.2-.2-.1-.4-.2-.6-.3-.1 0-.1.1-.3.2-.3.3-.6.6-1 .8-.1 0-.1 0-.1 0v.1s.1.1.1.1c.1.1.3.1.4.2.3 0 .6 0 .9-.2.5-.3.7-.6.7-.7z" fill="#231f20"/><path d="m201.4 121.4c.1-.1.2-.2.3-.2s.2.1.2.3c0 .5-.1 1.3-.4 2.2-.2.8-.5 1.6-.9 2.3 0 .1-.1.1-.1.2s.1.2.3.2c.1.1.3.1.4.1s.2-.1.3-.2c.1-.2.2-.4.3-.6.5-.8.9-1.4 1.3-1.9v-.1c0-.1 0-.1-.1-.1s-.1 0-.1.1c-.2.3-.4.5-.6.7.2-.5.3-.9.4-1.4s.2-1.1.3-1.6c0-.3-.2-.5-.7-.7-.1-.1-.2-.1-.3-.2-.1 0-.2 0-.4.1-.3.1-.8.6-1.5 1.3-.6.6-1.1 1.3-1.6 2 .5-1.4.8-2.3.9-2.8 0-.2-.2-.4-.6-.5-.1-.1-.2-.2-.3-.2s-.2 0-.2.1c-.4.4-.7.7-.9 1 0 0-.1.1-.1.1 0 .1 0 .1.1.1s.1 0 .2-.1c.3-.2.5-.4.6-.5s.1-.1.2-.2v.3c-.1.8-.3 1.6-.6 2.3-.2.8-.6 1.5-.9 2.3 0 .1-.1.1-.1.2 0 0 .1.1.2.1.2.1.4.2.6.2s.3-.1.4-.4c.7-1.6 1.9-3.2 3.4-4.5z" fill="#231f20"/><path d="m208.7 120.5c-.1 0-.1.1-.1.3s-.1.5-.1.7c-.3.8-.7 1.6-1.2 2.3-.5.8-1.2 1.5-1.9 2.1-.1.1-.3.2-.5.2s-.3-.2-.3-.5c0-.1 0-.3 0-.4.2-.7.4-1.4.9-2 .3-.6.7-1.1 1.2-1.5.2-.1.4-.2.6-.2s.3 0 .5.1c.1 0 .2.1.3.1s.2 0 .2-.1-.1-.1-.1-.2l-.6-.5c-.2-.1-.4-.2-.6-.2-.3 0-.6.2-.8.4-.6.6-1.2 1.3-1.6 2-.5.9-.8 1.7-.8 2.3 0 .5.3.9.7 1.1.2.2.5.3.7.3.3 0 .5-.2.7-.4.7-.6 1.4-1.6 2.3-2.9-1.5 5.7-3.3 8.6-5.5 8.6-.7 0-1.5-.3-2.3-1-.1 0-.1-.1-.2-.1s-.2.1-.2.2.1.2.2.3c1.1.9 2.1 1.4 3.1 1.4 2.6 0 4.8-3.8 6.4-11.3.1-.3 0-.5-.2-.6-.4-.3-.6-.4-.8-.5z" fill="#231f20"/><path d="m219.6 117.6c-.6-.4-1-.5-1.2-.5-.1 0-.1 0-.2.1-.6-.2-1-.2-1.2-.1-.5.2-1 .6-1.4 1-.5.5-.9 1.1-1.2 1.7-.2.3-.3.6-.3.9 0 .2.1.5.3.6.3.2.6.4 1 .6h.2c.2 0 .2 0 .2-.1s0-.1-.1-.1l-.4-.3c-.1-.1-.2-.3-.2-.5 0-.1 0-.2.1-.3.2-.8.7-1.5 1.2-2s1-.8 1.4-.9h.3c.5 0 .8.2.8.7-.1 1.4-.5 3.1-1.3 4.9-.9 1.9-1.6 2.8-2.3 2.8-.4 0-.8-.1-1.2-.3h-.1c-.2 0-.3.1-.3.2s0 .1.1.2c.8.5 1.4.8 1.9.8.9 0 1.8-1 2.7-3 .7-1.4 1.2-3 1.5-4.6.1-1.1 0-1.6-.3-1.8z" fill="#231f20"/><path d="m225.8 123.8c-.2.3-.4.5-.6.7.2-.5.3-.9.4-1.4s.2-1.1.3-1.6c0-.3-.2-.5-.7-.7-.1-.1-.2-.1-.3-.2-.1 0-.2 0-.4.1-.3.1-.8.6-1.5 1.3-.6.6-1.1 1.3-1.6 2 .5-1.4.8-2.3.9-2.8 0-.2-.2-.4-.6-.5-.1-.1-.2-.2-.3-.2s-.2 0-.2.1c-.4.4-.7.7-.9 1 0 0-.1.1-.1.1 0 .1 0 .1.1.1s.1 0 .2-.1c.3-.2.5-.4.6-.5s.2-.2.2-.2 0 .1 0 .3c-.1.8-.3 1.6-.6 2.3-.2.8-.6 1.5-.9 2.3 0 .1-.1.1-.1.2 0 0 .1.1.2.1.2.1.4.2.6.2s.3-.1.4-.4c.9-1.8 2-3.3 3.5-4.7.1-.1.2-.1.3-.2.1 0 .2.1.2.3 0 .8-.1 1.5-.4 2.2-.2.8-.5 1.6-.9 2.3 0 .1-.1.1-.1.2s.1.2.3.2c.1.1.3.1.4.1s.2-.1.3-.2c.1-.2.2-.4.3-.6.5-.8.9-1.4 1.3-1.9v-.1c0-.1 0-.1-.1-.1-.1.2-.1.2-.2.3z" fill="#231f20"/><path d="m232.2 124.3c-.2.2-.4.4-.6.6.7-3.5 1.7-6.3 3.2-8.5.4-.6.8-.9 1.1-.9.2 0 .4.1.6.2h.2c.1 0 .2 0 .2-.1s0-.1-.1-.1l-.8-.6c-.2-.1-.4-.2-.6-.2s-.3.1-.4.2c-.4.3-.9 1-1.4 1.9-.8 1.4-1.4 2.9-1.9 4.5-.1.2-.2.4-.3.6-.4.7-.8 1.3-1.3 1.8-.6.7-1.2 1.3-1.9 1.9-.2.2-.4.3-.7.3-.1 0-.2-.1-.2-.3.1-.8.5-1.6 1.2-2.5.5-.7 1-1.2 1.7-1.7.3-.2.6-.2.9 0h.1c.1 0 .2 0 .2-.1 0 0 0-.1-.1-.1-.5-.4-.9-.7-1.1-.7-.3 0-.5.1-.7.3-.8.7-1.5 1.5-2.1 2.3-.5.7-.9 1.6-1.1 2.4v.1c0 .2.2.5.5.7.1.1.3.2.4.2.2 0 .4-.1.5-.2.5-.4 1-.8 1.4-1.3.6-.6 1.2-1.3 1.8-2-.2.5-.3 1.3-.6 2.4v.3c0 .1.1.3.2.4 0 0 .2.1.5.3.1 0 .1.1.2.1s.2-.1.2-.3c.2-.7.5-1.4 1-2 .1-.1.1-.2 0-.2.1.1 0 .2-.2.3z" fill="#231f20"/><path d="m236.3 118.2c-.1 0-.1.1-.3.2-.3.3-.6.6-1 .8-.1 0-.1 0-.1 0v.1s.1.1.1.1c.1.1.3.1.4.2.3 0 .6 0 .9-.2.5-.3.7-.5.7-.6s-.1-.2-.1-.2c-.2-.2-.4-.3-.6-.4z" fill="#231f20"/><path d="m235.2 120.9c-.1-.1-.2-.1-.4-.2-.1 0-.2 0-.2.1-.3.3-.6.6-.8.9 0 0-.1.1-.1.1 0 .1.1.1.3 0l.5-.4c.1-.1.2-.1.3-.2.1 0 .1.1.1.3-.1.8-.3 1.5-.6 2.3-.2.8-.6 1.5-1 2.2 0 .1-.1.1-.1.2 0 0 .1.1.2.2.2.1.3.1.5.2.1 0 .2-.1.3-.2.2-.4.4-.8.7-1.2.4-.6.6-.9.7-1s.1-.2 0-.2c0 0-.1 0-.1.1-.2.2-.4.5-.7.7.4-1 .7-2.1 1-3.2 0-.1 0-.2 0-.3s-.1-.3-.2-.4c0 0-.1 0-.4 0z" fill="#231f20"/><path d="m242.3 121.4c0-.1-.1-.1-.2-.2-.2-.1-.4-.2-.6-.3-.1 0-.2.1-.2.3 0 .1-.1.3-.3.6-.4.7-.8 1.3-1.3 1.8-.6.7-1.2 1.3-1.9 1.9-.2.2-.4.3-.7.3-.1 0-.2-.1-.2-.2v-.1c.1-.8.6-1.6 1.3-2.5.5-.7 1-1.2 1.7-1.7.3-.2.6-.2.9 0h.1c.1 0 .2 0 .2-.1 0 0 0-.1-.1-.1-.5-.4-.9-.7-1.1-.7-.3 0-.5.1-.7.3-.8.7-1.5 1.5-2.1 2.4-.5.7-.9 1.6-1 2.4v.2c0 .3.2.5.4.6.1.1.3.2.4.2.2 0 .4-.1.5-.2.6-.4 1.1-.8 1.5-1.3.7-.7 1.3-1.4 1.9-2.2-.4 1-.7 2-.8 3v.3c.1.1.1.2.2.2.2.1.3.2.5.2.1 0 .2-.1.2-.3.2-.7.5-1.4 1-2 0 0 .1-.1.1-.2s0-.1-.1-.1-.2.1-.2.1c-.1.1-.2.2-.2.2-.1.1-.2.2-.3.3.3-1 .6-2 1-3 .1.1.1 0 .1-.1z" fill="#231f20"/></g><ellipse cx="47.8" cy="64.8" fill="#fff" rx="40.4" ry="40.4"/><path d="m47.8 105.6c-22.5 0-40.8-18.3-40.8-40.8s18.3-40.8 40.8-40.8 40.8 18.3 40.8 40.8-18.3 40.8-40.8 40.8zm0-80.8c-22.1 0-40.1 18-40.1 40s18 40 40.1 40 40.1-18 40.1-40-18-40-40.1-40z" fill="#231f20"/><path clip-rule="evenodd" d="m47.8 33.6c17.3 0 31.2 14 31.2 31.3s-14 31.2-31.3 31.2c-17.2 0-31.2-14-31.2-31.3s14-31.3 31.3-31.2z" fill="#fff" fill-rule="evenodd"/><path clip-rule="evenodd" d="m47.8 34.4c16.8 0 30.4 13.6 30.4 30.4s-13.7 30.4-30.5 30.4-30.4-13.6-30.4-30.4c.1-16.8 13.7-30.4 30.5-30.4z" fill="#231f20" fill-rule="evenodd"/><path clip-rule="evenodd" d="m26.4 43.2-4.8 37.2c-7.1-12.1-5.2-27.4 4.8-37.2z" fill="#f48120" fill-rule="evenodd"/><path clip-rule="evenodd" d="m23.1 82.5 12.3-45.5c3.9-1.7 8.1-2.6 12.4-2.6 2.3 0 4.7.3 6.9.8l-29.1 50.4c-.9-.9-1.7-2-2.5-3.1z" fill="#f48120" fill-rule="evenodd"/><path clip-rule="evenodd" d="m26.7 86.7 37.4-47.6c5.3 3.4 9.4 8.3 11.8 14l-46.7 35.8c-.9-.7-1.7-1.4-2.5-2.2z" fill="#f48120" fill-rule="evenodd"/><path clip-rule="evenodd" d="m30.5 89.8 47.7-27c0 .7.1 1.3.1 2 0 6.3-1.9 12.4-5.6 17.5l-37.9 10c-1.5-.7-3-1.6-4.3-2.5z" fill="#f48120" fill-rule="evenodd"/><path clip-rule="evenodd" d="m38.7 93.8 24.9-3c-7.5 4.5-16.6 5.6-24.9 3z" fill="#f48120" fill-rule="evenodd"/><path d="m47.8 95.6c-17 0-30.8-13.8-30.8-30.8s13.8-30.8 30.8-30.8 30.8 13.8 30.8 30.8-13.8 30.8-30.8 30.8zm0-60.8c-16.6 0-30.1 13.5-30.1 30s13.5 30 30.1 30 30.1-13.5 30.1-30-13.5-30-30.1-30z" fill="#231f20"/><path clip-rule="evenodd" d="m10.3 72-.1-.5 4.3-.6-.3-1.8.5-.1.4 2.3zm-.7-5.9c0-.7.2-1.3.7-1.8 1-1 2.6-1 3.6 0s1 2.6 0 3.5c-.5.5-1.1.7-1.8.7-.4 0-.9-.1-1.3-.3-.7-.4-1.2-1.2-1.2-2.1zm.5 0c0 .4.1.7.3 1s.4.6.7.7c.3.2.7.3 1 .3 1.1 0 2-.9 2-2 0-.4-.1-.7-.3-1s-.4-.6-.7-.7c-.3-.2-.7-.3-1-.3-.4 0-.7.1-1 .3-.7.3-1.1.9-1 1.7zm-.4-3.9.1-.5 3.9-1-3.4-2.1.1-.5 4.4 2.8v.1zm.9-5.5.7-2.6.5.1-.6 2.2 1.4.4.6-2.1.5.1-.6 2.2 1.8.5.6-2.2.5.1-.7 2.6zm1.1-3.8 4.5 1.7.8-2.2-.4-.2-.6 1.7-4-1.5zm1.2-2.9.2-.5 2.3-.2-1.3-1.9.2-.5 1.6 2.4 2.1 1-.2.4-2.1-1z" fill="#231f20" fill-rule="evenodd"/><path clip-rule="evenodd" d="m21.8 37.4.7-.6c.3-.2.6-.5.9-.7.2-.1.5-.2.8-.1s.5.2.7.4.3.5.3.8-.1.5-.3.8c-.3.3-.6.6-.9.8l-.3.2 1.4 1.7-.4.3zm.7.1 1 1.2.6-.5c.2-.1.4-.3.5-.5.1-.1.1-.3.1-.5s-.1-.3-.2-.4-.2-.2-.4-.2c-.1 0-.3 0-.4 0-.2.1-.4.2-.6.4zm2.7-2.9 2.7 3.9.4-.3-1.3-1.8.2-.2 2.7.8.5-.3-2.7-.8c.3-.2.5-.4.7-.7.1-.2.2-.4.2-.7 0-.2-.1-.5-.2-.7-.2-.2-.4-.4-.7-.5s-.5-.1-.8.1-.6.3-.9.6zm.6.1.7-.5c.2-.1.4-.3.6-.3h.4c.1.1.3.2.3.3.1.1.1.3.2.4 0 .2 0 .3-.1.4-.1.2-.3.4-.5.5l-.7.5zm5.2-3.8c.6-.3 1.3-.4 1.9-.2 1.3.4 2 1.8 1.6 3.1-.2.6-.7 1.2-1.3 1.5s-1.3.4-1.9.2-1.2-.6-1.4-1.2c-.2-.4-.3-.8-.3-1.3.1-.9.6-1.7 1.4-2.1zm.2.4c.3-.2.7-.2 1-.2.4 0 .7.1 1 .3s.5.5.7.8.2.7.2 1-.1.7-.3 1-.5.5-.8.7c-1 .5-2.2.1-2.7-.9-.2-.3-.3-.7-.2-1 0-.7.4-1.4 1.1-1.7zm3.7-2 2.3-.7.1.4-1.8.6.5 1.4 1.8-.6.1.4-1.8.6.7 2.2-.5.1zm3.6-1 2.7-.6.1.5-2.3.4.3 1.5 2.2-.5.1.5-2.2.5.4 1.8 2.2-.5.1.5-2.7.6zm3.8 3 .4-.3c.3.5.7.7 1.1.7.2 0 .3-.1.4-.2s.2-.2.3-.3.1-.3.1-.4c0-.2-.1-.3-.2-.4-.3-.3-.6-.5-.9-.7s-.6-.3-.8-.6c-.2-.2-.3-.4-.3-.7 0-.2 0-.4.1-.6s.2-.3.4-.5c.2-.1.4-.2.6-.2s.4 0 .6.1c.3.1.5.3.7.5l-.3.3c-.1-.2-.3-.3-.5-.4-.1-.1-.3-.1-.4-.1-.2 0-.3.1-.4.2s-.2.3-.1.4c0 .1 0 .2.1.3s.2.2.3.3.3.2.7.4.7.4.9.7c.2.2.3.4.3.7s-.1.7-.3.9c-.2.3-.5.5-.9.5-.3 0-.6 0-.8-.1-.6.1-.9-.2-1.1-.5zm3.4-.3.4-.2c.3.5.6.8 1 .8.2 0 .3 0 .4-.1.3-.1.4-.4.4-.7 0-.2-.1-.3-.2-.5-.2-.3-.5-.5-.8-.7s-.5-.4-.8-.6c-.2-.2-.3-.5-.3-.7 0-.4.2-.8.5-1 .2-.1.4-.2.6-.2s.4 0 .6.2.5.4.6.6l-.1.1c-.1-.2-.3-.3-.5-.5-.1-.1-.3-.1-.4-.1-.2 0-.3.1-.5.2-.1.1-.2.3-.2.4s0 .2.1.3.1.2.2.3.3.2.6.5c.3.2.6.5.9.8.1.2.2.5.2.7 0 .3-.1.7-.4.9-.3.3-.6.4-.9.4s-.6-.1-.8-.2c-.2-.2-.4-.4-.6-.7zm4.1-3.9h.5l-.3 4.7h-.5zm4.3.4c.7.1 1.3.5 1.7 1 .8 1.1.5 2.7-.6 3.5-.5.4-1.2.5-1.9.4s-1.3-.5-1.6-1c-.4-.5-.5-1.2-.4-1.8.1-.4.3-.8.6-1.2.3-.3.6-.6 1.1-.7.2-.3.7-.3 1.1-.2zm-.1.4c-.7-.1-1.4.2-1.9.7-.2.3-.4.6-.4 1-.2 1.1.5 2.1 1.6 2.3.4.1.7 0 1.1-.1.3-.1.6-.3.8-.6s.4-.6.4-1c.1-.4 0-.7-.1-1.1-.1-.3-.3-.6-.6-.8-.2-.1-.5-.3-.9-.4zm2.7 5 1.5-4.5h.1l1.9 4.4 1.1-3.5.4.1-1.5 4.5h-.1l-1.9-4.4-1.1 3.4zm8.5-1.7-.1-.1-4.2 3.2.5.2 1.4-1.1 1.8.9v1.7l.5.2zm-.5.9-.1 1.9-1.4-.7zm3.4.8.4.3-2.3 3.6 1.5 1-.2.4-2-1.2z" fill="#231f20" fill-rule="evenodd"/><path clip-rule="evenodd" d="m77.1 40.7.3.4-2.2 1.8c-.2.1-.3.3-.5.4-.1.1-.2.3-.3.4v.5c0 .2.1.4.2.5.2.2.5.4.8.4.2 0 .3 0 .5-.1s.4-.3.6-.4l2.3-1.8.3.4-2.2 1.8c-.3.2-.6.4-.9.6-.3.1-.6.1-.8 0-.3-.1-.6-.3-.8-.5-.2-.3-.4-.6-.4-.9s0-.6.2-.9.5-.5.7-.7zm-1.1 6.5.2.4 3.1-1.8-1.5 4.5.1.1 4.1-2.4-.2-.4-3.2 1.8 1.6-4.6-.1-.1zm6.7 2.2.2.4-4.3 2-.2-.4c-.1 0 4.3-2 4.3-2zm.6 1.6-3.8 3.5v.1l5.2.4-.2-.5-4-.3 3-2.7zm1.8 5.3.5 2.7-.5.1-.4-2.2-1.5.3.4 2.2-.5.1-.4-2.2-1.7.3.4 2.2-.5.1-.5-2.7zm.6 4 .1.9c0 .4.1.7 0 1.1 0 .3-.2.5-.4.7s-.5.3-.8.4c-.2 0-.5 0-.7-.1s-.4-.3-.5-.5c-.1-.3-.2-.6-.2-.9l-2.1 1.9-.1-.6 2.1-1.9v-.3l-2.1.3v-.5zm-.4.6-1.6.1.1.8c0 .2.1.5.2.7.1.1.2.3.3.3.1.1.3.1.5.1s.3-.1.4-.2.2-.2.2-.4.1-.5 0-.7zm-3.2 3.4.2.4c-.5.3-.8.6-.8 1 0 .2 0 .3.1.5.1.3.4.4.7.4.2 0 .3-.1.5-.2.3-.2.6-.5.8-.8s.4-.5.7-.7c.2-.2.5-.2.7-.2s.4.1.6.2.3.3.4.4c.1.2.1.4.1.6s-.1.4-.2.6c-.2.2-.4.4-.6.6l-.3-.4c.2-.1.3-.3.5-.4.1-.1.1-.3.1-.4 0-.2-.1-.3-.2-.5-.1-.1-.3-.2-.4-.2s-.2 0-.3.1-.2.1-.3.2-.2.3-.5.6c-.2.3-.5.6-.8.8-.2.1-.5.2-.7.2-.3 0-.7-.2-.9-.4-.2-.3-.4-.6-.4-1 0-.3.1-.6.2-.8.2-.2.5-.5.8-.6zm3.8 4v.5l-4.8-.3v-.5zm-.6 1.5.5.1-.5 2.6-.5-.1.2-1-4.2-.7.1-.5 4.2.7zm-.1 3.4-.1.5-2.2.7 1.6 1.7-.1.5-2-2.1-2.2-.6.1-.5 2.2.6z" fill="#231f20" fill-rule="evenodd"/><path clip-rule="evenodd" d="m25.2 88.8.7.6c.3.2.6.5.8.8.2.2.2.5.2.7 0 .6-.5 1.1-1 1.2-.3 0-.6 0-.8-.1-.3-.2-.7-.5-1-.7l-.3-.2-1.4 1.7-.4-.3zm0 .7-1.1 1.2.6.5c.2.2.4.3.6.4h.5c.2 0 .3-.1.4-.3.1-.1.2-.3.2-.4 0-.2 0-.3-.1-.4-.1-.2-.3-.4-.5-.5zm2.8 1.7-1.6 2.4c-.2.3-.4.6-.5.9s-.1.6.1.9c.1.3.4.6.7.8.5.4 1.2.3 1.7 0 .3-.2.5-.5.7-.8l1.6-2.4-.4-.3-1.6 2.4c-.1.2-.3.4-.5.6-.1.1-.3.2-.4.2s-.3.1-.5 0c-.2 0-.3-.1-.4-.2-.2-.1-.3-.2-.4-.4-.1-.1-.1-.3-.2-.5 0-.2 0-.3.1-.5 0-.1.1-.3.3-.5l1.6-2.4zm1.4 6.4 2.2-4.2h.1l1.1 4.7 1.7-3.2.4.2-2.2 4.2-.1-.1-1.1-4.6-1.7 3.2zm7.7-1.8-1 3c-.1.3-.2.5-.3.7-.1.1-.2.2-.3.2s-.3 0-.4 0-.2-.1-.3-.2c-.2-.2-.3-.3-.5-.5l-.3.4c.1.2.3.4.5.6.2.1.3.2.5.3s.5.1.7 0 .4-.2.5-.3c.2-.3.3-.6.4-.9l1-3.1zm3.4 1 1 5.1-.5-.1-.4-1.7-2-.5-1.1 1.3-.5-.1 3.3-4.1zm-.3 1-1.2 1.5 1.6.4zm3.1-.5.9.1c.3 0 .6.1.8.2s.3.3.4.5.1.4.1.6-.1.4-.2.6-.3.3-.5.4c.2.1.4.2.5.4.1.1.2.3.3.5s.1.4 0 .5c0 .4-.2.7-.5.9s-.8.3-1.2.2l-1.3-.2zm.4.5-.2 1.5h.3.7c.2 0 .3-.1.4-.2s.2-.3.2-.4c0-.2 0-.4-.2-.5-.2-.2-.4-.3-.7-.3zm-.2 2-.2 1.8.6.1h.8c.2 0 .3-.1.4-.3.1-.1.2-.3.2-.4 0-.2 0-.4-.1-.6s-.3-.3-.5-.4c-.3-.1-.5-.1-.8-.2zm6.3-2.5h.5c-.2.5-.4 1-.4 1.5-.1.6-.1 1.2-.1 1.8s.1 1.1.2 1.6.3.9.5 1.4h-.5c-.2-.4-.3-.9-.4-1.3-.1-.5-.2-1.1-.2-1.6 0-.6 0-1.2.1-1.8 0-.5.1-1 .3-1.6zm1.6.1h.5l.4 4.7h-.5zm2.4 4.6-.9-4.7h.1l3.8 2.9-.8-3.5.5-.1.9 4.7h-.1l-3.8-2.9.7 3.5zm5.1-1.2 1.4-.5c.5-.1.9-.4 1.2-.7s.4-.6.5-1 0-.9-.1-1.3c-.2-.5-.4-.9-.8-1.2s-.8-.4-1.3-.4-1 .2-1.5.4l-.9.3zm.3-.6-1.3-3.6.3-.1c.5-.2.9-.3 1.4-.4.4 0 .8.1 1.1.3.3.3.6.6.7 1s.2.8.1 1.2c-.1.3-.3.7-.6.9-.4.2-.8.4-1.3.6zm2.6-5.6.4-.2 2 4.3-.5.3zm3-1.5 4.3 3-.4.3-1.4-1-1.8 1 .2 1.7-.5.3zm.5.9.2 1.9 1.4-.8zm5.8 2.4c-.1-.5-.3-1.1-.5-1.6-.3-.5-.6-1-.9-1.5-.3-.4-.7-.8-1.1-1.2-.3-.3-.7-.6-1.1-.9l-.4.3c.4.3.8.5 1.1.9.4.4.8.8 1.1 1.2.4.5.7 1 .9 1.6.2.5.4 1 .5 1.5z" fill="#231f20" fill-rule="evenodd"/><path clip-rule="evenodd" d="m17.9 83.2c.8 0 1.4.6 1.4 1.4s-.6 1.4-1.4 1.4-1.4-.6-1.4-1.4.6-1.4 1.4-1.4z" fill="#231f20" fill-rule="evenodd"/><path d="m17.9 86c-.8 0-1.5-.7-1.5-1.5s.7-1.5 1.5-1.5 1.5.7 1.5 1.5c-.1.9-.7 1.5-1.5 1.5zm0-2.7c-.7 0-1.3.6-1.3 1.3s.6 1.3 1.3 1.3 1.3-.6 1.3-1.3c-.1-.7-.6-1.3-1.3-1.3z" fill="#231f20"/><path clip-rule="evenodd" d="m77.4 83.2c.8 0 1.4.6 1.4 1.4s-.6 1.4-1.4 1.4-1.4-.6-1.4-1.4.6-1.4 1.4-1.4z" fill="#231f20" fill-rule="evenodd"/><path d="m77.4 86c-.8 0-1.5-.7-1.5-1.5s.7-1.5 1.5-1.5 1.5.7 1.5 1.5c-.1.9-.7 1.5-1.5 1.5zm0-2.7c-.7 0-1.3.6-1.3 1.3s.6 1.3 1.3 1.3 1.3-.6 1.3-1.3c-.1-.7-.6-1.3-1.3-1.3z" fill="#231f20"/><path d="m102.1 24.8h22.6v22.6h-22.6z" fill="#f48120"/><path d="m125.1 47.8h-23.3v-23.3h23.3zm-22.6-.8h21.8v-21.8h-21.8z" fill="#231f20"/><path d="m102.1 52.5h22.6v22.6h-22.6z" fill="#f48120"/><path d="m125.1 75.5h-23.3v-23.3h23.3zm-22.6-.8h21.8v-21.8h-21.8z" fill="#231f20"/><path d="m102.1 80.2h22.6v22.6h-22.6z" fill="#f48120"/><path d="m125.1 103.2h-23.3v-23.3h23.3zm-22.6-.8h21.8v-21.8h-21.8z" fill="#231f20"/><path d="m131.9 44c.9.4 2 .6 3 .6.8 0 1.6-.1 2.4-.4 1.5-.5 2.9-1.5 3.8-2.8.5-.7.9-1.6 1.1-2.4.3-1 .4-2 .4-3.1s-.2-2.3-.5-3.4c-.3-1-.8-1.9-1.5-2.6-.6-.7-1.4-1.3-2.3-1.7-1.9-.8-4.1-.8-6.1 0-.9.4-1.7 1-2.4 1.7-.7.8-1.2 1.7-1.6 2.7-.4 1.1-.6 2.3-.6 3.5s.2 2.3.5 3.4c.3 1 .8 1.9 1.5 2.6.6.9 1.4 1.5 2.3 1.9zm-1.9-9.9c.1-.6.3-1.3.6-1.9s.6-1.1 1.1-1.5c.4-.4.9-.8 1.5-1s1.3-.4 1.9-.4c1.3 0 2.5.5 3.4 1.4.4.4.8 1 1 1.5.3.6.5 1.2.6 1.8s.2 1.3.2 2c0 .9-.1 1.8-.4 2.6-.2.8-.6 1.5-1 2.2-.4.6-1 1.1-1.7 1.5s-1.5.5-2.2.5c-.6 0-1.3-.1-1.8-.4-.5-.2-1-.6-1.5-1-.4-.4-.8-.9-1.1-1.5s-.5-1.2-.6-1.8c-.2-.7-.2-1.4-.2-2s0-1.3.2-2z" fill="#231f20"/><path d="m170.2 42.6h-7.1v-5.9h6.3v-1.8h-6.3v-5.2h6.7v-1.7h-8.9v16.4h9.3z" fill="#231f20"/><path d="m188.1 44.4h2.1v-7l5.5-9.4h-2.4l-2.4 4.5c-.3.6-.6 1.2-.9 1.8s-.5 1.1-.8 1.6c-.2-.4-.3-.8-.5-1.1l-.5-1.1c-.2-.4-.4-.8-.6-1.2l-2.3-4.5h-2.4l5.2 9.4z" fill="#231f20"/><path d="m152.2 44.4 5.9-16.4h-2.3l-2.8 8.1c-.4 1.1-.7 2.1-1 3.1s-.6 2-.8 3h-.1c-.2-1-.5-1.9-.8-2.9s-.6-2.1-1-3.2l-2.6-8.1h-2.3l5.4 16.4z" fill="#231f20"/><path d="m183.1 42.6h-7v-14.6h-2.2v16.4h9.2z" fill="#231f20"/><path d="m190.1 55.5h1.8v16.4h-1.8z" fill="#231f20"/><path d="m218.3 71.9v-16.4h-1.7v6.9 2.4c0 .8 0 1.5.1 2.2s.1 1.4.1 2.1h-.1c-.3-.8-.7-1.7-1.1-2.6s-.9-1.8-1.4-2.8l-4.4-8.3h-2v16.4h1.7v-7c0-.9 0-1.7 0-2.5s0-1.5 0-2.2 0-1.4-.1-2.1h.1c.3.9.7 1.8 1.2 2.7.4.9.9 1.8 1.4 2.8l4.4 8.3h1.8z" fill="#231f20"/><path d="m130 64.8h1.7c.5 0 .9.1 1.4.4.4.2.7.6.9 1 .3.6.4 1.2.5 1.8.2 1 .4 1.9.5 2.5.1.5.2.9.4 1.4h1.9c-.2-.5-.4-1.1-.5-1.6-.2-.8-.4-1.7-.6-2.9-.1-.7-.4-1.5-.7-2.1-.3-.5-.7-.9-1.3-1.2v-.1c.5-.2.9-.5 1.3-.9s.7-.9.9-1.4c.2-.6.4-1.3.4-1.9s-.1-1.2-.3-1.8c-.2-.5-.4-1-.8-1.4-.4-.5-1-.8-1.6-1-.8-.2-1.6-.4-2.4-.3-.4 0-.8 0-1.2 0s-.8.1-1.2.1-.7.1-1 .2v16.2h1.8v-7zm0-7.6c.2-.1.4-.1.7-.1.4 0 .7-.1 1.1 0 .6 0 1.1.1 1.7.3.5.2.9.6 1.1 1 .5 1.1.5 2.3 0 3.4-.2.5-.6.8-1.1 1.1s-1.1.4-1.7.4h-1.8z" fill="#231f20"/><path d="m204.5 57.5c-.5-.7-1.2-1.3-2-1.7-1.6-.8-3.5-.8-5.2 0-.8.4-1.5 1-2 1.7-.6.8-1.1 1.7-1.3 2.7-.3 1.2-.5 2.3-.5 3.5 0 1.1.1 2.3.5 3.4.3.9.7 1.8 1.3 2.6.5.7 1.2 1.3 2 1.7s1.6.6 2.5.6c.7 0 1.4-.1 2-.4.7-.2 1.3-.6 1.8-1.1.6-.5 1-1.1 1.4-1.7.4-.8.7-1.6.9-2.4.2-1 .3-2 .3-3.1s-.1-2.3-.4-3.4c-.3-.7-.7-1.6-1.3-2.4zm-.5 8.8c-.2.8-.5 1.5-.9 2.2-.3.6-.8 1.1-1.4 1.5s-1.2.5-1.9.5c-.5 0-1.1-.1-1.6-.4-.5-.2-.9-.6-1.2-1-.4-.4-.7-.9-.9-1.5-.3-.6-.4-1.2-.6-1.8-.1-.7-.2-1.4-.2-2 0-.7.1-1.4.2-2.1.1-.6.3-1.3.5-1.9.2-.5.5-1.1.9-1.5.3-.4.8-.8 1.3-1s1.1-.4 1.6-.4c.6 0 1.1.1 1.6.4s.9.6 1.2 1c.4.5.7 1 .9 1.5.2.6.4 1.2.5 1.8s.2 1.3.2 2c.1.9 0 1.8-.2 2.7z" fill="#231f20"/><path d="m231.3 71.9-4.7-16.4h-2.1l-4.7 16.4h1.9l1.4-5.2h4.9l1.5 5.2zm-7.9-6.8 1.4-4.7c.1-.5.3-1 .4-1.5s.2-1 .3-1.5c.1.5.2 1 .3 1.5s.2 1 .4 1.5l1.4 4.7z" fill="#231f20"/><path d="m159.7 57.3v-1.8h-7.5v16.4h1.8v-7.4h5.3v-1.8h-5.3v-5.4z" fill="#231f20"/><path d="m177.2 63.8c-.6-.5-1.3-.9-2-1.2-.5-.2-1.1-.5-1.6-.9-.4-.3-.7-.6-.9-1s-.3-.9-.3-1.3c0-.3 0-.6.1-.9s.3-.6.5-.8c.2-.3.5-.4.8-.6.4-.2.8-.2 1.2-.2s.8 0 1.1.1.6.2.9.3c.2.1.4.2.6.3l.5-1.7c-.2-.2-.5-.3-.7-.4-.3-.1-.7-.2-1-.3-.4-.1-.8-.1-1.3-.1-.6 0-1.3.1-1.8.3-1.1.4-1.9 1.3-2.3 2.3-.2.6-.3 1.2-.3 1.8 0 .7.1 1.4.4 2s.7 1.1 1.3 1.5c.6.5 1.3.9 2 1.1.5.2 1 .5 1.5.9.4.3.6.6.8 1s.3.9.3 1.3c0 .5-.1 1-.3 1.5-.2.4-.6.8-1 1-.5.2-1 .4-1.6.4s-1.2-.1-1.8-.3c-.5-.2-1-.4-1.4-.8l-.5 1.8c.3.2.6.4 1 .5.8.3 1.7.5 2.6.5.7 0 1.5-.1 2.1-.4.6-.2 1.1-.6 1.5-1s.7-1 .9-1.5c.2-.6.3-1.2.3-1.8 0-.7-.1-1.4-.4-2.1-.3-.4-.7-.9-1.2-1.3z" fill="#231f20"/><path d="m183.4 72.2c.7 0 1.5-.1 2.1-.4.6-.2 1.1-.6 1.5-1s.7-1 .9-1.5c.2-.6.3-1.2.3-1.8 0-.7-.1-1.4-.4-2.1-.3-.6-.7-1.1-1.2-1.6-.6-.5-1.3-.9-2-1.2-.5-.2-1.1-.5-1.6-.9-.4-.3-.7-.6-.9-1s-.3-.9-.3-1.3c0-.3 0-.6.1-.9s.3-.6.5-.8c.2-.3.5-.4.8-.6.4-.2.8-.2 1.2-.2s.8 0 1.1.1.6.2.9.3c.2.1.4.2.6.3l.5-1.7c-.2-.2-.5-.3-.7-.4-.3-.1-.7-.2-1-.3-.4-.1-.8-.1-1.3-.1-.6 0-1.3.1-1.8.3-1.1.4-1.9 1.3-2.3 2.3-.2.6-.3 1.2-.3 1.8 0 .7.1 1.4.4 2s.7 1.1 1.3 1.5c.6.5 1.3.9 2 1.1.5.2 1 .5 1.5.9.4.3.6.6.8 1s.3.9.3 1.3c0 .5-.1 1-.3 1.5-.2.4-.6.8-1 1-.5.2-1 .4-1.6.4-1.2 0-2.3-.4-3.2-1.1l-.5 1.8c.3.2.6.4 1 .5.9.5 1.7.7 2.6.8z" fill="#231f20"/><path d="m240.4 70.1h-5.9v-14.6h-1.8v16.4h7.7z" fill="#231f20"/><path d="m169.1 57.3v-1.8h-7.5v16.4h7.8v-1.8h-6v-5.9h5.4v-1.8h-5.4v-5.1z" fill="#231f20"/><path d="m148.9 57.5c-.5-.7-1.2-1.3-2-1.7-1.6-.8-3.5-.8-5.2 0-.8.4-1.5 1-2 1.7-.6.8-1.1 1.7-1.3 2.7-.3 1.2-.5 2.3-.5 3.5 0 1.1.1 2.3.5 3.4.3.9.7 1.8 1.3 2.6.5.7 1.2 1.3 2 1.7s1.7.6 2.5.6c.7 0 1.4-.1 2-.4.7-.2 1.2-.6 1.8-1.1s1-1.1 1.4-1.7c.4-.8.7-1.6.9-2.4.2-1 .3-2 .3-3.1s-.1-2.3-.4-3.4c-.3-.7-.8-1.6-1.3-2.4zm-.5 8.8c-.2.8-.5 1.5-.9 2.2-.3.6-.8 1.1-1.4 1.5-1 .6-2.3.7-3.4.2-.5-.2-.9-.6-1.2-1-.4-.4-.7-.9-.9-1.5-.3-.6-.4-1.2-.6-1.8-.1-.7-.2-1.4-.2-2 0-.7.1-1.4.2-2.1.1-.6.3-1.3.5-1.9.2-.5.5-1.1.9-1.5.3-.4.8-.8 1.3-1s1.1-.4 1.6-.4c.6 0 1.1.1 1.6.4s.9.6 1.2 1c.4.5.7 1 .9 1.5.2.6.4 1.2.5 1.8.3 1.5.2 3-.1 4.6z" fill="#231f20"/><path d="m159.7 91.1c-.4 1.1-.7 2.1-1 3.1s-.6 2-.8 3c-.2-1-.5-1.9-.8-2.9s-.6-2.1-1-3.2l-2.6-8.1h-2.3l5.4 16.4h2.3l5.9-16.4h-2.3z" fill="#231f20"/><path d="m214 84.8h5v14.6h2.1v-14.6h5.1v-1.8h-12.2z" fill="#231f20"/><path d="m238.8 83-2.4 4.5c-.3.6-.6 1.2-.9 1.8s-.5 1.1-.8 1.6c-.2-.4-.3-.8-.5-1.1l-.5-1.1c-.2-.4-.4-.8-.6-1.2l-2.3-4.5h-2.4l5.2 9.4v7h2.1v-7l5.5-9.4z" fill="#231f20"/><path d="m190.5 94.9c-.1-.8-.4-1.5-.9-2.1-.4-.5-.9-1-1.5-1.2v-.1c.6-.2 1.1-.5 1.6-.9s.8-.9 1.1-1.4c.3-.6.4-1.2.4-1.9 0-.6-.1-1.2-.4-1.8-.2-.5-.5-1-.9-1.4-.5-.5-1.2-.8-1.9-1-.9-.2-1.9-.4-2.8-.3-.5 0-1 0-1.5 0s-1 .1-1.4.1c-.4.1-.8.1-1.2.2v16.2h2.1v-7.1h2c.6 0 1.1.1 1.6.4.4.2.8.6 1.1 1 .3.6.5 1.2.6 1.8.2 1 .4 1.9.6 2.5.1.5.3.9.5 1.4h2.2c-.2-.5-.4-1.1-.6-1.6-.2-.7-.4-1.6-.7-2.8zm-3.2-4.6c-.6.3-1.3.4-2 .4h-2.2v-6c.3-.1.5-.1.8-.1h1.3c.7 0 1.3.1 2 .3.5.2 1 .5 1.3 1 .9 1.4.6 3.3-.8 4.2-.1.1-.2.2-.4.2z" fill="#231f20"/><path d="m202.7 91.3c-.7-.5-1.5-.9-2.3-1.2-.6-.2-1.3-.5-1.9-.9-.4-.2-.8-.6-1.1-1-.2-.4-.4-.8-.3-1.3 0-.3.1-.6.2-.9s.3-.6.5-.8c.3-.3.6-.5 1-.6.5-.2.9-.2 1.4-.2.4 0 .9 0 1.3.1s.7.2 1 .3c.2.1.5.2.7.3l.6-1.7c-.3-.2-.6-.3-.9-.4-.4-.1-.8-.2-1.2-.3-.5-.1-1-.1-1.5-.1-.7 0-1.5.1-2.2.3-.6.2-1.2.5-1.7.9s-.8.9-1.1 1.4c-.3.6-.4 1.2-.4 1.8 0 .7.2 1.4.5 2 .4.6.9 1.1 1.5 1.5.7.5 1.5.9 2.3 1.1.6.2 1.2.5 1.8.9.4.3.8.6 1 1s.3.9.3 1.3c0 .5-.1 1-.4 1.5-.3.4-.7.8-1.2 1-.6.3-1.2.4-1.9.4s-1.4-.1-2.1-.3c-.6-.2-1.2-.4-1.7-.8l-.6 1.8c.4.2.7.4 1.1.5.5.2 1 .3 1.5.4s1.1.1 1.6.1c.9 0 1.7-.1 2.5-.4.7-.2 1.3-.6 1.8-1s.8-.9 1.1-1.5c.2-.6.4-1.2.4-1.8.3-1.2-.4-2.6-1.6-3.4z" fill="#231f20"/><path d="m169.9 91.7h6.4v-1.7h-6.4v-5.2h6.8v-1.8h-8.9v16.4h9.2v-1.8h-7.1z" fill="#231f20"/><path d="m138.8 89.9v2.4c0 .8 0 1.5.1 2.2 0 .7.1 1.4.2 2.1h-.1c-.4-.8-.8-1.7-1.3-2.6s-1-1.8-1.6-2.8l-5.2-8.3h-2.3v16.4h2v-7c0-.9 0-1.7 0-2.5s0-1.5 0-2.2-.1-1.4-.1-2.1h.1c.4.9.9 1.8 1.4 2.7s1.1 1.8 1.7 2.8l5.2 8.3h2.1v-16.3h-2z" fill="#231f20"/><path d="m145.8 83h2.1v16.4h-2.1z" fill="#231f20"/><path d="m208.7 83h2.1v16.4h-2.1z" fill="#231f20"/><path clip-rule="evenodd" d="m107.8 43.5h9.2v-1.7h-7v-13.8h-2.1v15.5zm0 27.7h2.1v-6.2c.3.1.5.1.8.1h.9c.7 0 1.3-.1 2-.2.6-.1 1.2-.3 1.7-.6.5-.2.9-.6 1.3-.9.4-.4.7-.9.9-1.4.2-.6.3-1.2.3-1.9 0-.6-.1-1.3-.4-1.9-.2-.5-.6-1-1-1.4-.5-.5-1.2-.8-1.9-1-.9-.2-1.8-.4-2.7-.3-.9 0-1.6 0-2.3.1s-1.3.1-1.8.2zm2.1-13.9c.3-.1.5-.1.8-.1h1.2c.7 0 1.4.1 2 .3.5.2 1 .5 1.3 1s.5 1.1.5 1.7-.2 1.3-.5 1.8-.8.9-1.4 1.1c-.7.3-1.4.4-2.2.4-.4 0-.7 0-1 0s-.5-.1-.8-.1v-6.1zm-2.1 26.1v9.2c0 1 .1 2.1.4 3.1.3.8.7 1.5 1.2 2.1.5.5 1.2.9 1.9 1.1.8.2 1.5.4 2.3.4s1.7-.1 2.5-.4c.7-.2 1.4-.6 2-1.2s1-1.3 1.3-2.1c.3-1 .5-2 .5-3.1v-9.1h-2.1v9.2c0 1-.1 1.9-.5 2.8-.3.7-.8 1.2-1.4 1.6s-1.4.5-2.1.5-1.4-.2-2-.5c-.6-.4-1.1-.9-1.4-1.6-.4-.9-.5-1.8-.5-2.8v-9.2z" fill="#231f20" fill-rule="evenodd"/><path d="m2.8 18.6h240.4v2.3h-240.4z" fill="#f48120"/><path d="m243.5 21.2h-241v-2.9h241zm-240.4-.6h239.7v-1.7h-239.7z" fill="#231f20"/><path d="m2.8 109.1h240.4v2.3h-240.4z" fill="#f48120"/><path d="m243.5 111.7h-241v-2.9h241zm-240.4-.6h239.7v-1.7h-239.7z" fill="#231f20"/></svg>